<?xml version="1.0" encoding="UTF-8"?>
<svg xmlns="http://www.w3.org/2000/svg" xmlns:xlink="http://www.w3.org/1999/xlink" width="313pt" height="142pt" viewBox="0 0 313 142">
<defs>
<clipPath id="clip-0">
<path clip-rule="nonzero" d="M 56 81 L 63 81 L 63 86.574219 L 56 86.574219 Z M 56 81 "/>
</clipPath>
<clipPath id="clip-1">
<path clip-rule="nonzero" d="M 63 81 L 71 81 L 71 86.574219 L 63 86.574219 Z M 63 81 "/>
</clipPath>
<clipPath id="clip-2">
<path clip-rule="nonzero" d="M 43.054688 43.203125 L 83.308594 43.203125 L 83.308594 70 L 43.054688 70 Z M 43.054688 43.203125 "/>
</clipPath>
<clipPath id="clip-3">
<path clip-rule="nonzero" d="M 89.875 47.914062 L 100 47.914062 L 100 72.496094 L 89.875 72.496094 Z M 89.875 47.914062 "/>
</clipPath>
<clipPath id="clip-4">
<path clip-rule="nonzero" d="M 169 47.914062 L 191 47.914062 L 191 67 L 169 67 Z M 169 47.914062 "/>
</clipPath>
<clipPath id="clip-5">
<path clip-rule="nonzero" d="M 260 50 L 269.875 50 L 269.875 68 L 260 68 Z M 260 50 "/>
</clipPath>
</defs>
<path fill-rule="nonzero" fill="rgb(14.422607%, 20.367432%, 42.704773%)" fill-opacity="1" d="M 51.28125 72.277344 L 56.21875 72.277344 C 57.054688 68.828125 58.28125 66.085938 59.753906 64.402344 C 56.265625 65.550781 53.265625 68.398438 51.28125 72.277344 "/>
<path fill-rule="nonzero" fill="rgb(14.422607%, 20.367432%, 42.704773%)" fill-opacity="1" d="M 47.964844 71.171875 C 48.160156 71.546875 48.359375 71.914062 48.5625 72.277344 L 49.875 72.277344 C 51.140625 69.625 52.84375 67.382812 54.855469 65.71875 C 52.164062 67 49.808594 68.871094 47.964844 71.171875 "/>
<path fill-rule="nonzero" fill="rgb(14.422607%, 20.367432%, 42.704773%)" fill-opacity="1" d="M 76.1875 74.886719 C 76.027344 74.4375 75.859375 73.988281 75.675781 73.558594 L 70.4375 73.558594 C 70.871094 75.671875 71.164062 78.011719 71.289062 80.503906 L 71.5625 80.503906 C 73.128906 78.9375 74.710938 77.074219 76.1875 74.886719 "/>
<path fill-rule="nonzero" fill="rgb(14.422607%, 20.367432%, 42.704773%)" fill-opacity="1" d="M 57.523438 72.277344 L 62.539062 72.277344 L 62.539062 63.921875 C 60.625 64.480469 58.722656 67.519531 57.523438 72.277344 "/>
<path fill-rule="nonzero" fill="rgb(14.422607%, 20.367432%, 42.704773%)" fill-opacity="1" d="M 50.175781 74.886719 C 51.652344 77.074219 53.234375 78.941406 54.800781 80.503906 L 55.070312 80.503906 C 55.199219 78.011719 55.488281 75.671875 55.925781 73.558594 L 50.6875 73.558594 C 50.503906 73.988281 50.335938 74.433594 50.175781 74.886719 "/>
<path fill-rule="nonzero" fill="rgb(14.422607%, 20.367432%, 42.704773%)" fill-opacity="1" d="M 62.539062 73.558594 L 57.222656 73.558594 C 56.785156 75.613281 56.488281 77.953125 56.355469 80.503906 L 62.539062 80.503906 Z M 62.539062 73.558594 "/>
<g clip-path="url(#clip-0)">
<path fill-rule="nonzero" fill="rgb(14.422607%, 20.367432%, 42.704773%)" fill-opacity="1" d="M 56.304688 81.785156 C 56.304688 81.832031 56.304688 81.878906 56.300781 81.921875 C 58.664062 84.027344 60.886719 85.46875 62.539062 86.355469 L 62.539062 81.785156 Z M 56.304688 81.785156 "/>
</g>
<g clip-path="url(#clip-1)">
<path fill-rule="nonzero" fill="rgb(14.422607%, 20.367432%, 42.704773%)" fill-opacity="1" d="M 63.824219 86.359375 C 65.472656 85.46875 67.699219 84.03125 70.058594 81.921875 C 70.058594 81.878906 70.058594 81.832031 70.058594 81.789062 L 63.824219 81.789062 Z M 63.824219 86.359375 "/>
</g>
<path fill-rule="nonzero" fill="rgb(14.422607%, 20.367432%, 42.704773%)" fill-opacity="1" d="M 71.507812 65.71875 C 73.519531 67.386719 75.222656 69.625 76.488281 72.273438 L 77.804688 72.273438 C 78.003906 71.914062 78.203125 71.546875 78.398438 71.171875 C 76.554688 68.871094 74.199219 67 71.507812 65.71875 "/>
<g clip-path="url(#clip-2)">
<path fill-rule="nonzero" fill="rgb(14.422607%, 20.367432%, 42.704773%)" fill-opacity="1" d="M 59.394531 50.304688 C 60.015625 49.507812 60.53125 48.585938 60.648438 47.949219 C 61.0625 48.601562 61.332031 49.90625 60.242188 51.472656 C 61.640625 51.960938 64.035156 47.839844 62.625 45.558594 C 65.53125 47.222656 66.402344 51.519531 64.9375 54.453125 C 66.242188 54.871094 68.046875 51.320312 67.449219 48.960938 C 70 53.296875 67.546875 57.859375 62.53125 60.230469 C 62.835938 59.4375 63.394531 57.179688 60.144531 56.058594 C 57.390625 55.109375 57.324219 52.953125 59.394531 50.304688 M 47.335938 69.914062 C 51.148438 65.414062 56.832031 62.542969 63.179688 62.542969 L 63.183594 62.542969 C 69.53125 62.542969 75.214844 65.414062 79.027344 69.917969 C 81.550781 64.644531 83.308594 58.003906 83.308594 49.726562 L 83.308594 46.234375 C 83.308594 45.746094 82.964844 45.339844 82.507812 45.246094 L 82.492188 45.238281 C 76.265625 43.90625 69.804688 43.203125 63.179688 43.203125 C 56.546875 43.203125 50.082031 43.910156 43.847656 45.246094 L 43.820312 45.253906 C 43.382812 45.363281 43.054688 45.757812 43.054688 46.234375 L 43.058594 49.726562 C 43.058594 58.003906 44.8125 64.644531 47.335938 69.914062 "/>
</g>
<path fill-rule="nonzero" fill="rgb(14.422607%, 20.367432%, 42.704773%)" fill-opacity="1" d="M 63.824219 80.503906 L 70.007812 80.503906 C 69.875 77.949219 69.574219 75.613281 69.140625 73.558594 L 63.824219 73.558594 Z M 63.824219 80.503906 "/>
<path fill-rule="nonzero" fill="rgb(14.422607%, 20.367432%, 42.704773%)" fill-opacity="1" d="M 63.824219 63.921875 L 63.824219 72.277344 L 68.839844 72.277344 C 67.640625 67.519531 65.734375 64.484375 63.824219 63.921875 "/>
<path fill-rule="nonzero" fill="rgb(14.422607%, 20.367432%, 42.704773%)" fill-opacity="1" d="M 66.605469 64.398438 C 68.078125 66.082031 69.304688 68.824219 70.144531 72.277344 L 75.082031 72.277344 C 73.09375 68.398438 70.09375 65.550781 66.605469 64.398438 "/>
<g clip-path="url(#clip-3)">
<path fill-rule="nonzero" fill="rgb(14.422607%, 20.367432%, 42.704773%)" fill-opacity="1" d="M 95.023438 52.328125 C 95.023438 49.167969 94.742188 48.828125 93.058594 48.683594 L 92.351562 48.628906 C 92.179688 48.515625 92.238281 48.003906 92.40625 47.917969 C 94.054688 47.972656 95.023438 48.003906 96.21875 48.003906 C 97.355469 48.003906 98.324219 47.972656 99.460938 47.917969 C 99.632812 48.003906 99.691406 48.515625 99.519531 48.628906 L 99.09375 48.683594 C 97.414062 48.914062 97.355469 49.308594 97.355469 52.328125 L 97.355469 62.882812 C 97.355469 65.128906 97.242188 67.09375 96.703125 68.398438 C 95.761719 70.679688 93.746094 72.5 91.097656 72.5 C 90.757812 72.5 89.875 72.46875 89.875 71.898438 C 89.875 71.417969 90.300781 70.589844 90.898438 70.589844 C 91.242188 70.589844 91.582031 70.644531 91.953125 70.761719 C 92.351562 70.875 92.75 70.960938 93.144531 70.960938 C 93.746094 70.960938 94.085938 70.617188 94.285156 70.222656 C 94.9375 68.882812 95.023438 64.617188 95.023438 63.082031 Z M 95.023438 52.328125 "/>
</g>
<path fill-rule="nonzero" fill="rgb(14.422607%, 20.367432%, 42.704773%)" fill-opacity="1" d="M 113.929688 59.53125 C 113.929688 55.570312 112.179688 51.300781 107.59375 51.300781 C 105.097656 51.300781 101.859375 53.003906 101.859375 58.261719 C 101.859375 61.808594 103.585938 66.421875 108.316406 66.421875 C 111.195312 66.421875 113.929688 64.261719 113.929688 59.53125 M 99.457031 59.027344 C 99.457031 54.226562 103.058594 50.554688 108.003906 50.554688 C 113.546875 50.554688 116.332031 54.5625 116.332031 58.789062 C 116.332031 63.636719 112.636719 67.164062 108.003906 67.164062 C 102.675781 67.164062 99.457031 63.347656 99.457031 59.027344 "/>
<path fill-rule="nonzero" fill="rgb(14.422607%, 20.367432%, 42.704773%)" fill-opacity="1" d="M 121.78125 59.027344 C 120.632812 59.027344 120.582031 59.078125 120.582031 59.796875 L 120.582031 63.179688 C 120.582031 65.699219 120.703125 66.035156 122.046875 66.179688 L 122.742188 66.253906 C 122.886719 66.347656 122.839844 66.78125 122.695312 66.851562 C 121.398438 66.800781 120.582031 66.78125 119.644531 66.78125 C 118.613281 66.78125 117.796875 66.828125 116.863281 66.851562 C 116.71875 66.78125 116.671875 66.394531 116.816406 66.253906 L 117.222656 66.179688 C 118.566406 65.9375 118.613281 65.699219 118.613281 63.179688 L 118.613281 54.539062 C 118.613281 52.019531 118.445312 51.613281 117.199219 51.515625 L 116.574219 51.46875 C 116.429688 51.371094 116.480469 50.9375 116.621094 50.867188 C 117.796875 50.890625 118.613281 50.9375 119.644531 50.9375 C 120.582031 50.9375 121.398438 50.917969 122.429688 50.867188 C 122.574219 50.9375 122.625 51.371094 122.476562 51.46875 L 122.023438 51.515625 C 120.632812 51.660156 120.582031 52.019531 120.582031 54.539062 L 120.582031 57.300781 C 120.582031 58.042969 120.632812 58.066406 121.78125 58.066406 L 128.648438 58.066406 C 129.800781 58.066406 129.847656 58.042969 129.847656 57.300781 L 129.847656 54.539062 C 129.847656 52.019531 129.800781 51.660156 128.382812 51.515625 L 127.925781 51.46875 C 127.78125 51.371094 127.832031 50.9375 127.976562 50.867188 C 129.078125 50.917969 129.894531 50.9375 130.878906 50.9375 C 131.816406 50.9375 132.632812 50.917969 133.710938 50.867188 C 133.855469 50.9375 133.902344 51.371094 133.757812 51.46875 L 133.253906 51.515625 C 131.863281 51.660156 131.816406 52.019531 131.816406 54.539062 L 131.816406 63.179688 C 131.816406 65.699219 131.863281 66.011719 133.253906 66.179688 L 133.832031 66.253906 C 133.972656 66.347656 133.925781 66.78125 133.78125 66.851562 C 132.632812 66.800781 131.816406 66.78125 130.878906 66.78125 C 129.894531 66.78125 129.03125 66.800781 127.976562 66.851562 C 127.832031 66.78125 127.78125 66.394531 127.925781 66.253906 L 128.382812 66.179688 C 129.847656 65.9375 129.847656 65.699219 129.847656 63.179688 L 129.847656 59.796875 C 129.847656 59.078125 129.800781 59.027344 128.648438 59.027344 Z M 121.78125 59.027344 "/>
<path fill-rule="nonzero" fill="rgb(14.422607%, 20.367432%, 42.704773%)" fill-opacity="1" d="M 150.222656 62.699219 C 150.222656 63.421875 150.222656 66.273438 150.296875 66.898438 C 150.25 67.042969 150.105469 67.164062 149.839844 67.164062 C 149.550781 66.757812 148.855469 65.917969 146.769531 63.539062 L 141.199219 57.203125 C 140.550781 56.460938 138.921875 54.492188 138.417969 53.964844 L 138.367188 53.964844 C 138.273438 54.253906 138.25 54.804688 138.25 55.523438 L 138.25 60.757812 C 138.25 61.882812 138.273438 65.003906 138.679688 65.722656 C 138.824219 65.988281 139.304688 66.132812 139.90625 66.179688 L 140.648438 66.253906 C 140.792969 66.441406 140.769531 66.730469 140.601562 66.851562 C 139.519531 66.804688 138.679688 66.777344 137.792969 66.777344 C 136.785156 66.777344 136.136719 66.804688 135.296875 66.851562 C 135.128906 66.730469 135.105469 66.394531 135.25 66.253906 L 135.898438 66.179688 C 136.449219 66.105469 136.832031 65.964844 136.953125 65.699219 C 137.289062 64.835938 137.265625 61.90625 137.265625 60.757812 L 137.265625 53.820312 C 137.265625 53.148438 137.242188 52.640625 136.738281 52.09375 C 136.402344 51.757812 135.824219 51.585938 135.25 51.515625 L 134.839844 51.46875 C 134.695312 51.324219 134.695312 50.964844 134.886719 50.867188 C 135.898438 50.9375 137.167969 50.9375 137.601562 50.9375 C 137.984375 50.9375 138.394531 50.917969 138.703125 50.867188 C 139.183594 52.09375 142.015625 55.261719 142.808594 56.148438 L 145.136719 58.761719 C 146.792969 60.609375 147.96875 61.957031 149.097656 63.105469 L 149.144531 63.105469 C 149.242188 62.988281 149.242188 62.601562 149.242188 62.097656 L 149.242188 56.964844 C 149.242188 55.835938 149.214844 52.714844 148.761719 51.996094 C 148.617188 51.777344 148.230469 51.636719 147.273438 51.515625 L 146.863281 51.46875 C 146.695312 51.324219 146.71875 50.9375 146.910156 50.867188 C 148.015625 50.917969 148.832031 50.9375 149.746094 50.9375 C 150.777344 50.9375 151.398438 50.917969 152.214844 50.867188 C 152.40625 50.988281 152.40625 51.324219 152.265625 51.46875 L 151.929688 51.515625 C 151.160156 51.636719 150.679688 51.828125 150.582031 52.019531 C 150.175781 52.882812 150.222656 55.859375 150.222656 56.964844 Z M 150.222656 62.699219 "/>
<path fill-rule="nonzero" fill="rgb(14.422607%, 20.367432%, 42.704773%)" fill-opacity="1" d="M 156.566406 67.160156 C 154.550781 67.160156 153.28125 66.539062 152.824219 66.273438 C 152.535156 65.746094 152.222656 64.042969 152.175781 62.917969 C 152.296875 62.746094 152.65625 62.699219 152.75 62.84375 C 153.113281 64.066406 154.09375 66.421875 156.878906 66.421875 C 158.894531 66.421875 159.878906 65.097656 159.878906 63.660156 C 159.878906 62.601562 159.664062 61.429688 157.910156 60.300781 L 155.632812 58.808594 C 154.433594 58.019531 153.039062 56.648438 153.039062 54.683594 C 153.039062 52.402344 154.816406 50.554688 157.933594 50.554688 C 158.679688 50.554688 159.542969 50.699219 160.167969 50.867188 C 160.480469 50.964844 160.816406 51.011719 161.007812 51.011719 C 161.222656 51.585938 161.4375 52.933594 161.4375 53.9375 C 161.34375 54.085938 160.960938 54.15625 160.839844 54.011719 C 160.527344 52.859375 159.878906 51.300781 157.574219 51.300781 C 155.222656 51.300781 154.71875 52.859375 154.71875 53.964844 C 154.71875 55.355469 155.871094 56.363281 156.757812 56.917969 L 158.679688 58.113281 C 160.191406 59.050781 161.679688 60.441406 161.679688 62.722656 C 161.679688 65.363281 159.6875 67.160156 156.566406 67.160156 "/>
<g clip-path="url(#clip-4)">
<path fill-rule="nonzero" fill="rgb(14.422607%, 20.367432%, 42.704773%)" fill-opacity="1" d="M 175.921875 57.59375 C 174.558594 57.59375 174.5 57.648438 174.5 58.5 L 174.5 62.511719 C 174.5 65.496094 174.644531 65.898438 176.234375 66.070312 L 177.0625 66.15625 C 177.234375 66.269531 177.175781 66.78125 177.003906 66.863281 C 175.46875 66.808594 174.5 66.78125 173.394531 66.78125 C 172.167969 66.78125 171.199219 66.835938 170.09375 66.863281 C 169.921875 66.78125 169.863281 66.324219 170.035156 66.15625 L 170.519531 66.070312 C 172.109375 65.78125 172.167969 65.496094 172.167969 62.511719 L 172.167969 52.269531 C 172.167969 49.28125 171.96875 48.796875 170.492188 48.6875 L 169.75 48.628906 C 169.578125 48.515625 169.636719 48.003906 169.808594 47.917969 C 171.199219 47.945312 172.167969 48.003906 173.394531 48.003906 C 174.5 48.003906 175.46875 47.976562 176.691406 47.917969 C 176.863281 48.003906 176.917969 48.515625 176.746094 48.628906 L 176.207031 48.6875 C 174.558594 48.859375 174.5 49.28125 174.5 52.269531 L 174.5 55.542969 C 174.5 56.421875 174.558594 56.449219 175.921875 56.449219 L 184.0625 56.449219 C 185.425781 56.449219 185.484375 56.421875 185.484375 55.542969 L 185.484375 52.269531 C 185.484375 49.28125 185.425781 48.859375 183.746094 48.6875 L 183.207031 48.628906 C 183.035156 48.515625 183.09375 48.003906 183.265625 47.917969 C 184.570312 47.976562 185.539062 48.003906 186.707031 48.003906 C 187.816406 48.003906 188.78125 47.976562 190.0625 47.917969 C 190.234375 48.003906 190.289062 48.515625 190.117188 48.628906 L 189.523438 48.6875 C 187.871094 48.859375 187.816406 49.28125 187.816406 52.269531 L 187.816406 62.511719 C 187.816406 65.496094 187.871094 65.867188 189.523438 66.070312 L 190.203125 66.15625 C 190.375 66.269531 190.320312 66.78125 190.148438 66.863281 C 188.78125 66.808594 187.816406 66.78125 186.707031 66.78125 C 185.539062 66.78125 184.515625 66.808594 183.265625 66.863281 C 183.09375 66.78125 183.035156 66.324219 183.207031 66.15625 L 183.746094 66.070312 C 185.484375 65.78125 185.484375 65.496094 185.484375 62.511719 L 185.484375 58.5 C 185.484375 57.648438 185.425781 57.59375 184.0625 57.59375 Z M 175.921875 57.59375 "/>
</g>
<path fill-rule="nonzero" fill="rgb(14.422607%, 20.367432%, 42.704773%)" fill-opacity="1" d="M 204.496094 59.53125 C 204.496094 55.570312 202.746094 51.300781 198.160156 51.300781 C 195.667969 51.300781 192.425781 53.003906 192.425781 58.261719 C 192.425781 61.808594 194.152344 66.421875 198.882812 66.421875 C 201.761719 66.421875 204.496094 64.261719 204.496094 59.53125 M 190.023438 59.027344 C 190.023438 54.226562 193.628906 50.554688 198.570312 50.554688 C 204.113281 50.554688 206.898438 54.5625 206.898438 58.789062 C 206.898438 63.636719 203.203125 67.164062 198.570312 67.164062 C 193.242188 67.164062 190.023438 63.347656 190.023438 59.027344 "/>
<path fill-rule="nonzero" fill="rgb(14.422607%, 20.367432%, 42.704773%)" fill-opacity="1" d="M 211.242188 63.179688 C 211.242188 65.699219 211.289062 66.011719 212.824219 66.179688 L 213.472656 66.25 C 213.617188 66.371094 213.570312 66.78125 213.425781 66.851562 C 212.058594 66.800781 211.265625 66.78125 210.304688 66.78125 C 209.296875 66.78125 208.433594 66.800781 207.378906 66.851562 C 207.234375 66.78125 207.183594 66.394531 207.332031 66.25 L 207.835938 66.179688 C 209.226562 65.988281 209.273438 65.699219 209.273438 63.179688 L 209.273438 54.324219 C 209.273438 52.285156 209.226562 51.875 208.144531 51.753906 L 207.28125 51.660156 C 207.113281 51.515625 207.136719 51.15625 207.332031 51.058594 C 208.601562 50.890625 210.089844 50.867188 212.082031 50.867188 C 214.074219 50.867188 215.5625 51.128906 216.6875 51.828125 C 217.792969 52.523438 218.609375 53.773438 218.609375 55.425781 C 218.609375 57.632812 217.242188 58.742188 216.210938 59.242188 C 215.152344 59.746094 213.882812 59.960938 212.898438 59.960938 C 212.730469 59.894531 212.730469 59.53125 212.875 59.484375 C 215.464844 59.003906 216.402344 57.539062 216.402344 55.453125 C 216.402344 53.121094 215.03125 51.613281 212.539062 51.613281 C 211.265625 51.613281 211.242188 51.707031 211.242188 52.476562 Z M 211.242188 63.179688 "/>
<path fill-rule="nonzero" fill="rgb(14.422607%, 20.367432%, 42.704773%)" fill-opacity="1" d="M 221.226562 54.539062 C 221.226562 52.019531 221.179688 51.636719 219.789062 51.515625 L 219.1875 51.46875 C 219.042969 51.371094 219.089844 50.9375 219.234375 50.867188 C 220.410156 50.917969 221.179688 50.9375 222.257812 50.9375 C 223.195312 50.9375 224.011719 50.917969 225.042969 50.867188 C 225.1875 50.9375 225.234375 51.371094 225.089844 51.46875 L 224.632812 51.515625 C 223.242188 51.660156 223.195312 52.019531 223.195312 54.539062 L 223.195312 57.300781 C 223.195312 57.757812 223.242188 58.210938 223.507812 58.210938 C 223.722656 58.210938 224.011719 58.066406 224.179688 57.945312 C 224.515625 57.660156 225.136719 57.035156 225.402344 56.796875 L 227.996094 54.226562 C 228.449219 53.796875 229.628906 52.570312 229.867188 52.234375 C 229.988281 52.066406 230.035156 51.945312 230.035156 51.851562 C 230.035156 51.757812 229.941406 51.683594 229.628906 51.613281 L 228.976562 51.46875 C 228.808594 51.300781 228.835938 50.988281 229.027344 50.867188 C 229.867188 50.917969 230.828125 50.9375 231.667969 50.9375 C 232.507812 50.9375 233.324219 50.917969 234.042969 50.867188 C 234.210938 50.988281 234.234375 51.324219 234.089844 51.46875 C 233.464844 51.515625 232.53125 51.757812 231.859375 52.140625 C 231.1875 52.523438 229.839844 53.652344 228.5 54.925781 L 226.339844 56.964844 C 226.003906 57.300781 225.785156 57.515625 225.785156 57.707031 C 225.785156 57.878906 225.929688 58.066406 226.242188 58.449219 C 228.523438 61.066406 230.371094 63.226562 232.242188 65.195312 C 232.820312 65.769531 233.253906 66.085938 234.070312 66.179688 L 234.535156 66.253906 C 234.703125 66.371094 234.65625 66.777344 234.484375 66.851562 C 233.863281 66.804688 233.203125 66.777344 232.074219 66.777344 C 231.089844 66.777344 230.25 66.804688 229.148438 66.851562 C 228.976562 66.804688 228.90625 66.394531 229.050781 66.253906 L 229.601562 66.152344 C 229.941406 66.105469 230.179688 66.035156 230.179688 65.917969 C 230.179688 65.769531 230.011719 65.582031 229.839844 65.363281 C 229.386719 64.785156 228.761719 64.140625 227.851562 63.105469 L 225.929688 60.945312 C 224.5625 59.410156 224.179688 58.933594 223.601562 58.933594 C 223.242188 58.933594 223.195312 59.242188 223.195312 60.085938 L 223.195312 63.179688 C 223.195312 65.699219 223.242188 66.035156 224.585938 66.179688 L 225.234375 66.253906 C 225.378906 66.347656 225.332031 66.777344 225.1875 66.851562 C 224.011719 66.804688 223.195312 66.777344 222.257812 66.777344 C 221.273438 66.777344 220.457031 66.804688 219.472656 66.851562 C 219.332031 66.777344 219.28125 66.421875 219.425781 66.253906 L 219.90625 66.179688 C 221.179688 65.988281 221.226562 65.699219 221.226562 63.179688 Z M 221.226562 54.539062 "/>
<path fill-rule="nonzero" fill="rgb(14.422607%, 20.367432%, 42.704773%)" fill-opacity="1" d="M 237.699219 54.589844 C 237.699219 52.042969 237.652344 51.636719 236.234375 51.515625 L 235.636719 51.46875 C 235.492188 51.371094 235.539062 50.941406 235.683594 50.867188 C 236.882812 50.914062 237.699219 50.941406 238.707031 50.941406 C 239.667969 50.941406 240.484375 50.914062 241.683594 50.867188 C 241.828125 50.941406 241.875 51.371094 241.730469 51.46875 L 241.132812 51.515625 C 239.714844 51.636719 239.667969 52.042969 239.667969 54.589844 L 239.667969 63.132812 C 239.667969 65.675781 239.714844 66.011719 241.132812 66.179688 L 241.730469 66.25 C 241.875 66.347656 241.828125 66.777344 241.683594 66.851562 C 240.484375 66.804688 239.667969 66.777344 238.707031 66.777344 C 237.699219 66.777344 236.976562 66.804688 235.777344 66.851562 C 235.632812 66.777344 235.585938 66.394531 235.726562 66.25 L 236.234375 66.179688 C 237.652344 66.011719 237.699219 65.675781 237.699219 63.132812 Z M 237.699219 54.589844 "/>
<path fill-rule="nonzero" fill="rgb(14.422607%, 20.367432%, 42.704773%)" fill-opacity="1" d="M 258.460938 62.699219 C 258.460938 63.421875 258.460938 66.273438 258.53125 66.898438 C 258.484375 67.042969 258.339844 67.164062 258.078125 67.164062 C 257.789062 66.757812 257.09375 65.917969 255.003906 63.539062 L 249.4375 57.203125 C 248.789062 56.460938 247.15625 54.492188 246.652344 53.964844 L 246.605469 53.964844 C 246.507812 54.253906 246.484375 54.804688 246.484375 55.523438 L 246.484375 60.757812 C 246.484375 61.882812 246.507812 65.003906 246.917969 65.722656 C 247.0625 65.988281 247.539062 66.132812 248.140625 66.179688 L 248.886719 66.253906 C 249.027344 66.441406 249.003906 66.730469 248.835938 66.851562 C 247.757812 66.804688 246.917969 66.777344 246.027344 66.777344 C 245.023438 66.777344 244.371094 66.804688 243.535156 66.851562 C 243.363281 66.730469 243.339844 66.394531 243.484375 66.253906 L 244.132812 66.179688 C 244.683594 66.105469 245.070312 65.964844 245.191406 65.699219 C 245.523438 64.835938 245.5 61.90625 245.5 60.757812 L 245.5 53.820312 C 245.5 53.148438 245.476562 52.640625 244.972656 52.09375 C 244.636719 51.757812 244.0625 51.585938 243.484375 51.515625 L 243.078125 51.46875 C 242.933594 51.324219 242.933594 50.964844 243.125 50.867188 C 244.132812 50.9375 245.40625 50.9375 245.835938 50.9375 C 246.222656 50.9375 246.628906 50.917969 246.941406 50.867188 C 247.421875 52.09375 250.253906 55.261719 251.042969 56.148438 L 253.371094 58.761719 C 255.027344 60.609375 256.203125 61.957031 257.332031 63.105469 L 257.382812 63.105469 C 257.476562 62.988281 257.476562 62.601562 257.476562 62.097656 L 257.476562 56.964844 C 257.476562 55.835938 257.453125 52.714844 256.996094 51.996094 C 256.851562 51.777344 256.46875 51.636719 255.511719 51.515625 L 255.101562 51.46875 C 254.933594 51.324219 254.957031 50.9375 255.148438 50.867188 C 256.253906 50.917969 257.066406 50.9375 257.980469 50.9375 C 259.015625 50.9375 259.636719 50.917969 260.453125 50.867188 C 260.644531 50.988281 260.644531 51.324219 260.5 51.46875 L 260.164062 51.515625 C 259.394531 51.636719 258.917969 51.828125 258.820312 52.019531 C 258.410156 52.882812 258.460938 55.859375 258.460938 56.964844 Z M 258.460938 62.699219 "/>
<g clip-path="url(#clip-5)">
<path fill-rule="nonzero" fill="rgb(14.422607%, 20.367432%, 42.704773%)" fill-opacity="1" d="M 264.765625 67.160156 C 262.746094 67.160156 261.476562 66.539062 261.019531 66.273438 C 260.730469 65.746094 260.417969 64.042969 260.371094 62.917969 C 260.492188 62.746094 260.851562 62.699219 260.945312 62.84375 C 261.308594 64.066406 262.289062 66.421875 265.074219 66.421875 C 267.089844 66.421875 268.078125 65.097656 268.078125 63.660156 C 268.078125 62.601562 267.859375 61.429688 266.105469 60.300781 L 263.828125 58.808594 C 262.625 58.019531 261.234375 56.648438 261.234375 54.683594 C 261.234375 52.402344 263.011719 50.554688 266.132812 50.554688 C 266.875 50.554688 267.738281 50.699219 268.363281 50.867188 C 268.675781 50.964844 269.011719 51.011719 269.203125 51.011719 C 269.417969 51.585938 269.632812 52.933594 269.632812 53.9375 C 269.539062 54.085938 269.15625 54.15625 269.035156 54.011719 C 268.722656 52.859375 268.078125 51.300781 265.773438 51.300781 C 263.417969 51.300781 262.914062 52.859375 262.914062 53.964844 C 262.914062 55.355469 264.066406 56.363281 264.953125 56.917969 L 266.875 58.113281 C 268.386719 59.050781 269.875 60.441406 269.875 62.722656 C 269.875 65.363281 267.882812 67.160156 264.765625 67.160156 "/>
</g>
<path fill-rule="nonzero" fill="rgb(14.422607%, 20.367432%, 42.704773%)" fill-opacity="1" d="M 112.203125 83.648438 C 112.203125 84.09375 112.226562 84.726562 112.464844 85.003906 C 112.699219 85.289062 113.070312 85.347656 113.445312 85.347656 C 114.550781 85.347656 115.390625 84.851562 115.390625 83.613281 C 115.390625 82.632812 114.894531 81.492188 112.925781 81.492188 C 112.253906 81.492188 112.203125 81.566406 112.203125 81.8125 Z M 112.203125 80.769531 C 112.203125 81.121094 112.21875 81.144531 112.847656 81.121094 C 114.113281 81.070312 114.796875 80.699219 114.796875 79.53125 C 114.796875 78.316406 113.890625 77.855469 112.949219 77.855469 C 112.675781 77.855469 112.488281 77.878906 112.378906 77.929688 C 112.253906 77.96875 112.203125 78.03125 112.203125 78.253906 Z M 111.1875 79.121094 C 111.1875 78.203125 111.136719 77.96875 110.578125 77.917969 L 110.183594 77.878906 C 110.082031 77.804688 110.09375 77.621094 110.195312 77.570312 C 110.863281 77.507812 111.707031 77.472656 112.859375 77.472656 C 113.640625 77.472656 114.386719 77.535156 114.945312 77.820312 C 115.476562 78.078125 115.890625 78.574219 115.890625 79.371094 C 115.890625 80.261719 115.367188 80.722656 114.625 81.070312 C 114.625 81.195312 114.722656 81.230469 114.859375 81.253906 C 115.527344 81.378906 116.519531 82 116.519531 83.328125 C 116.519531 84.765625 115.453125 85.734375 113.222656 85.734375 C 112.859375 85.734375 112.253906 85.695312 111.730469 85.695312 C 111.1875 85.695312 110.765625 85.71875 110.304688 85.734375 C 110.230469 85.695312 110.207031 85.5 110.28125 85.421875 L 110.503906 85.386719 C 111.160156 85.273438 111.1875 85.136719 111.1875 83.835938 Z M 111.1875 79.121094 "/>
<path fill-rule="nonzero" fill="rgb(14.422607%, 20.367432%, 42.704773%)" fill-opacity="1" d="M 119.308594 79.367188 C 119.308594 78.066406 119.285156 77.867188 118.5 77.808594 L 118.191406 77.78125 C 118.117188 77.730469 118.144531 77.507812 118.214844 77.472656 C 118.914062 77.496094 119.332031 77.507812 119.828125 77.507812 C 120.3125 77.507812 120.734375 77.496094 121.355469 77.472656 C 121.429688 77.507812 121.453125 77.730469 121.378906 77.78125 L 121.082031 77.808594 C 120.351562 77.867188 120.328125 78.066406 120.328125 79.367188 L 120.328125 83.6875 C 120.328125 84.46875 120.363281 84.792969 120.585938 85.027344 C 120.722656 85.164062 120.957031 85.3125 121.9375 85.3125 C 122.992188 85.3125 123.253906 85.261719 123.453125 85.148438 C 123.699219 85.003906 124.023438 84.554688 124.269531 83.921875 C 124.34375 83.859375 124.582031 83.910156 124.582031 83.996094 C 124.582031 84.132812 124.234375 85.398438 124.0625 85.734375 C 123.425781 85.710938 122.246094 85.695312 120.96875 85.695312 L 119.828125 85.695312 C 119.308594 85.695312 118.914062 85.710938 118.214844 85.734375 C 118.144531 85.695312 118.117188 85.5 118.191406 85.425781 L 118.566406 85.386719 C 119.285156 85.3125 119.308594 85.136719 119.308594 83.835938 Z M 119.308594 79.367188 "/>
<path fill-rule="nonzero" fill="rgb(14.422607%, 20.367432%, 42.704773%)" fill-opacity="1" d="M 133.097656 81.949219 C 133.097656 79.902344 132.195312 77.695312 129.824219 77.695312 C 128.535156 77.695312 126.859375 78.574219 126.859375 81.292969 C 126.859375 83.128906 127.753906 85.511719 130.199219 85.511719 C 131.6875 85.511719 133.097656 84.394531 133.097656 81.949219 M 125.621094 81.6875 C 125.621094 79.207031 127.480469 77.308594 130.035156 77.308594 C 132.902344 77.308594 134.339844 79.382812 134.339844 81.566406 C 134.339844 84.070312 132.429688 85.894531 130.035156 85.894531 C 127.28125 85.894531 125.621094 83.921875 125.621094 81.6875 "/>
<path fill-rule="nonzero" fill="rgb(14.422607%, 20.367432%, 42.704773%)" fill-opacity="1" d="M 143.578125 81.949219 C 143.578125 79.902344 142.671875 77.695312 140.304688 77.695312 C 139.011719 77.695312 137.339844 78.574219 137.339844 81.292969 C 137.339844 83.128906 138.230469 85.511719 140.675781 85.511719 C 142.164062 85.511719 143.578125 84.394531 143.578125 81.949219 M 136.097656 81.6875 C 136.097656 79.207031 137.957031 77.308594 140.515625 77.308594 C 143.378906 77.308594 144.816406 79.382812 144.816406 81.566406 C 144.816406 84.070312 142.90625 85.894531 140.515625 85.894531 C 137.761719 85.894531 136.097656 83.921875 136.097656 81.6875 "/>
<path fill-rule="nonzero" fill="rgb(14.422607%, 20.367432%, 42.704773%)" fill-opacity="1" d="M 150.757812 82.382812 C 151.039062 82.96875 151.316406 83.539062 151.609375 84.082031 L 151.636719 84.082031 C 151.972656 83.5 152.28125 82.855469 152.59375 82.222656 L 153.757812 79.855469 C 154.316406 78.726562 154.675781 78.042969 154.699219 77.472656 C 155.121094 77.507812 155.382812 77.507812 155.632812 77.507812 C 155.941406 77.507812 156.351562 77.496094 156.734375 77.472656 C 156.808594 77.523438 156.808594 77.734375 156.746094 77.78125 L 156.488281 77.808594 C 155.703125 77.878906 155.605469 78.117188 155.617188 78.984375 C 155.644531 80.300781 155.65625 82.59375 155.757812 84.378906 C 155.792969 85 155.78125 85.335938 156.363281 85.386719 L 156.761719 85.421875 C 156.832031 85.496094 156.820312 85.683594 156.734375 85.734375 C 156.226562 85.707031 155.71875 85.695312 155.273438 85.695312 C 154.839844 85.695312 154.277344 85.707031 153.769531 85.734375 C 153.683594 85.671875 153.671875 85.496094 153.746094 85.421875 L 154.105469 85.386719 C 154.714844 85.324219 154.714844 85.125 154.714844 84.332031 L 154.675781 79.15625 L 154.652344 79.15625 C 154.566406 79.292969 154.09375 80.285156 153.84375 80.773438 L 152.738281 82.941406 C 152.183594 84.035156 151.625 85.199219 151.402344 85.769531 C 151.375 85.808594 151.324219 85.820312 151.277344 85.820312 C 151.25 85.820312 151.191406 85.808594 151.164062 85.769531 C 150.953125 85.113281 150.359375 83.898438 150.074219 83.289062 L 148.957031 80.894531 C 148.695312 80.324219 148.4375 79.679688 148.164062 79.109375 L 148.140625 79.109375 C 148.089844 79.878906 148.050781 80.597656 148.015625 81.316406 C 147.976562 82.074219 147.929688 83.179688 147.929688 84.234375 C 147.929688 85.152344 148 85.347656 148.484375 85.386719 L 148.957031 85.421875 C 149.042969 85.496094 149.03125 85.695312 148.945312 85.734375 C 148.523438 85.707031 148.039062 85.695312 147.566406 85.695312 C 147.171875 85.695312 146.726562 85.707031 146.304688 85.734375 C 146.230469 85.671875 146.203125 85.484375 146.277344 85.421875 L 146.550781 85.386719 C 147.070312 85.3125 147.246094 85.238281 147.320312 84.367188 C 147.394531 83.550781 147.457031 82.867188 147.53125 81.640625 C 147.59375 80.609375 147.644531 79.554688 147.667969 78.871094 C 147.691406 78.09375 147.59375 77.90625 146.835938 77.808594 L 146.636719 77.78125 C 146.574219 77.707031 146.589844 77.523438 146.6875 77.472656 C 147.058594 77.496094 147.359375 77.507812 147.667969 77.507812 C 147.953125 77.507812 148.285156 77.507812 148.695312 77.472656 C 148.648438 77.953125 148.957031 78.726562 149.34375 79.519531 Z M 150.757812 82.382812 "/>
<path fill-rule="nonzero" fill="rgb(14.422607%, 20.367432%, 42.704773%)" fill-opacity="1" d="M 160.453125 83.648438 C 160.453125 84.09375 160.476562 84.726562 160.710938 85.003906 C 160.945312 85.289062 161.320312 85.347656 161.691406 85.347656 C 162.796875 85.347656 163.640625 84.851562 163.640625 83.613281 C 163.640625 82.632812 163.140625 81.492188 161.171875 81.492188 C 160.5 81.492188 160.453125 81.566406 160.453125 81.8125 Z M 160.453125 80.769531 C 160.453125 81.121094 160.464844 81.144531 161.097656 81.121094 C 162.359375 81.070312 163.042969 80.699219 163.042969 79.53125 C 163.042969 78.316406 162.136719 77.855469 161.195312 77.855469 C 160.921875 77.855469 160.734375 77.878906 160.625 77.929688 C 160.5 77.96875 160.453125 78.03125 160.453125 78.253906 Z M 159.433594 79.121094 C 159.433594 78.203125 159.386719 77.96875 158.828125 77.917969 L 158.429688 77.878906 C 158.332031 77.804688 158.34375 77.621094 158.441406 77.570312 C 159.109375 77.507812 159.957031 77.472656 161.109375 77.472656 C 161.890625 77.472656 162.636719 77.535156 163.191406 77.820312 C 163.726562 78.078125 164.136719 78.574219 164.136719 79.371094 C 164.136719 80.261719 163.613281 80.722656 162.871094 81.070312 C 162.871094 81.195312 162.96875 81.230469 163.105469 81.253906 C 163.773438 81.378906 164.769531 82 164.769531 83.328125 C 164.769531 84.765625 163.703125 85.734375 161.46875 85.734375 C 161.109375 85.734375 160.5 85.695312 159.980469 85.695312 C 159.433594 85.695312 159.011719 85.71875 158.550781 85.734375 C 158.476562 85.695312 158.453125 85.5 158.527344 85.421875 L 158.753906 85.386719 C 159.410156 85.273438 159.433594 85.136719 159.433594 83.835938 Z M 159.433594 79.121094 "/>
<path fill-rule="nonzero" fill="rgb(14.422607%, 20.367432%, 42.704773%)" fill-opacity="1" d="M 167.542969 79.367188 C 167.542969 78.078125 167.519531 77.894531 166.785156 77.808594 L 166.589844 77.78125 C 166.515625 77.730469 166.539062 77.507812 166.613281 77.472656 C 167.148438 77.496094 167.566406 77.507812 168.074219 77.507812 L 170.410156 77.507812 C 171.203125 77.507812 171.9375 77.507812 172.085938 77.472656 C 172.15625 77.683594 172.230469 78.574219 172.28125 79.121094 C 172.230469 79.195312 172.035156 79.222656 171.972656 79.144531 C 171.785156 78.5625 171.675781 78.128906 171.027344 77.96875 C 170.769531 77.90625 170.371094 77.894531 169.824219 77.894531 L 168.933594 77.894531 C 168.5625 77.894531 168.5625 77.917969 168.5625 78.390625 L 168.5625 80.871094 C 168.5625 81.21875 168.597656 81.21875 168.972656 81.21875 L 169.6875 81.21875 C 170.210938 81.21875 170.597656 81.191406 170.742188 81.144531 C 170.894531 81.09375 170.980469 81.019531 171.042969 80.710938 L 171.140625 80.199219 C 171.203125 80.125 171.414062 80.125 171.464844 80.214844 C 171.464844 80.511719 171.414062 80.996094 171.414062 81.464844 C 171.414062 81.914062 171.464844 82.382812 171.464844 82.65625 C 171.414062 82.742188 171.203125 82.742188 171.140625 82.667969 L 171.027344 82.183594 C 170.980469 81.960938 170.894531 81.777344 170.644531 81.714844 C 170.472656 81.664062 170.175781 81.652344 169.6875 81.652344 L 168.972656 81.652344 C 168.597656 81.652344 168.5625 81.664062 168.5625 81.988281 L 168.5625 83.734375 C 168.5625 84.394531 168.597656 84.816406 168.796875 85.027344 C 168.945312 85.175781 169.203125 85.3125 170.296875 85.3125 C 171.253906 85.3125 171.613281 85.261719 171.886719 85.125 C 172.109375 85.003906 172.441406 84.566406 172.765625 83.921875 C 172.855469 83.859375 173.027344 83.898438 173.074219 84.007812 C 172.988281 84.441406 172.679688 85.398438 172.519531 85.734375 C 171.402344 85.710938 170.296875 85.695312 169.191406 85.695312 L 168.074219 85.695312 C 167.542969 85.695312 167.121094 85.710938 166.390625 85.734375 C 166.316406 85.695312 166.289062 85.5 166.363281 85.425781 L 166.773438 85.386719 C 167.480469 85.324219 167.542969 85.136719 167.542969 83.835938 Z M 167.542969 79.367188 "/>
<path fill-rule="nonzero" fill="rgb(14.422607%, 20.367432%, 42.704773%)" fill-opacity="1" d="M 176.421875 81.15625 C 176.421875 81.378906 176.421875 81.515625 176.460938 81.566406 C 176.496094 81.601562 176.683594 81.628906 177.316406 81.628906 C 177.761719 81.628906 178.234375 81.578125 178.59375 81.304688 C 178.929688 81.042969 179.214844 80.609375 179.214844 79.765625 C 179.214844 78.785156 178.605469 77.855469 177.230469 77.855469 C 176.460938 77.855469 176.421875 77.90625 176.421875 78.253906 Z M 175.40625 79.382812 C 175.40625 78.203125 175.367188 77.992188 174.859375 77.929688 L 174.464844 77.882812 C 174.375 77.820312 174.375 77.621094 174.476562 77.570312 C 175.167969 77.507812 176.027344 77.472656 177.242188 77.472656 C 178.011719 77.472656 178.742188 77.53125 179.3125 77.84375 C 179.90625 78.152344 180.34375 78.710938 180.34375 79.582031 C 180.34375 80.757812 179.410156 81.402344 178.792969 81.652344 C 178.730469 81.726562 178.792969 81.851562 178.855469 81.949219 C 179.847656 83.550781 180.503906 84.542969 181.347656 85.25 C 181.558594 85.433594 181.867188 85.570312 182.203125 85.597656 C 182.265625 85.621094 182.277344 85.71875 182.214844 85.769531 C 182.105469 85.808594 181.90625 85.832031 181.667969 85.832031 C 180.613281 85.832031 179.984375 85.523438 179.101562 84.269531 C 178.777344 83.808594 178.273438 82.957031 177.886719 82.394531 C 177.699219 82.125 177.5 82 177.007812 82 C 176.445312 82 176.421875 82.011719 176.421875 82.273438 L 176.421875 83.835938 C 176.421875 85.136719 176.445312 85.289062 177.167969 85.386719 L 177.429688 85.425781 C 177.5 85.484375 177.476562 85.695312 177.402344 85.734375 C 176.84375 85.710938 176.421875 85.695312 175.925781 85.695312 C 175.40625 85.695312 174.957031 85.710938 174.375 85.734375 C 174.300781 85.695312 174.277344 85.511719 174.351562 85.425781 L 174.660156 85.386719 C 175.382812 85.300781 175.40625 85.136719 175.40625 83.835938 Z M 175.40625 79.382812 "/>
<path fill-rule="nonzero" fill="rgb(14.422607%, 20.367432%, 42.704773%)" fill-opacity="1" d="M 190.027344 84.429688 C 190.027344 84.925781 190.101562 85.226562 190.328125 85.3125 C 190.363281 85.347656 190.363281 85.421875 190.3125 85.460938 C 190.164062 85.460938 189.941406 85.507812 189.707031 85.574219 C 189.046875 85.746094 188.15625 85.894531 187.484375 85.894531 C 186.007812 85.894531 184.65625 85.484375 183.703125 84.519531 C 182.957031 83.773438 182.558594 82.792969 182.558594 81.703125 C 182.558594 80.648438 182.90625 79.578125 183.675781 78.761719 C 184.507812 77.894531 185.734375 77.3125 187.609375 77.3125 C 188.316406 77.3125 188.972656 77.445312 189.183594 77.496094 C 189.421875 77.546875 189.804688 77.632812 189.953125 77.609375 C 189.953125 78.019531 190.027344 78.660156 190.140625 79.40625 C 190.101562 79.503906 189.878906 79.519531 189.804688 79.445312 C 189.457031 78.105469 188.527344 77.683594 187.261719 77.683594 C 184.855469 77.683594 183.800781 79.394531 183.800781 81.253906 C 183.800781 83.636719 185.03125 85.507812 187.519531 85.507812 C 188.292969 85.507812 188.75 85.347656 188.886719 85.136719 C 188.949219 85.050781 189.011719 84.828125 189.011719 84.429688 L 189.011719 83.933594 C 189.011719 82.894531 188.972656 82.820312 188.207031 82.730469 L 187.660156 82.667969 C 187.558594 82.621094 187.574219 82.398438 187.660156 82.359375 C 188.015625 82.382812 188.703125 82.398438 189.433594 82.398438 C 189.917969 82.398438 190.339844 82.382812 190.75 82.359375 C 190.835938 82.410156 190.847656 82.59375 190.757812 82.667969 L 190.5625 82.695312 C 190.042969 82.753906 190.027344 83.105469 190.027344 83.738281 Z M 190.027344 84.429688 "/>
<path fill-rule="nonzero" fill="rgb(14.422607%, 20.367432%, 42.704773%)" fill-opacity="1" d="M 198.792969 85.894531 C 197.75 85.894531 197.09375 85.574219 196.855469 85.433594 C 196.710938 85.164062 196.546875 84.28125 196.523438 83.699219 C 196.585938 83.613281 196.773438 83.585938 196.820312 83.664062 C 197.007812 84.292969 197.515625 85.507812 198.953125 85.507812 C 199.996094 85.507812 200.503906 84.828125 200.503906 84.082031 C 200.503906 83.539062 200.394531 82.929688 199.488281 82.347656 L 198.308594 81.578125 C 197.6875 81.167969 196.96875 80.460938 196.96875 79.445312 C 196.96875 78.265625 197.886719 77.308594 199.5 77.308594 C 199.886719 77.308594 200.328125 77.382812 200.652344 77.472656 C 200.8125 77.523438 200.988281 77.546875 201.089844 77.546875 C 201.199219 77.84375 201.3125 78.539062 201.3125 79.058594 C 201.261719 79.132812 201.0625 79.171875 201 79.097656 C 200.839844 78.5 200.503906 77.695312 199.3125 77.695312 C 198.097656 77.695312 197.839844 78.5 197.839844 79.074219 C 197.839844 79.789062 198.433594 80.3125 198.890625 80.597656 L 199.886719 81.21875 C 200.664062 81.703125 201.4375 82.421875 201.4375 83.597656 C 201.4375 84.964844 200.40625 85.894531 198.792969 85.894531 "/>
<path fill-rule="nonzero" fill="rgb(14.422607%, 20.367432%, 42.704773%)" fill-opacity="1" d="M 204.496094 78.363281 C 205.402344 77.65625 206.554688 77.308594 207.847656 77.308594 C 208.515625 77.308594 209.460938 77.445312 210.042969 77.609375 C 210.191406 77.644531 210.277344 77.671875 210.390625 77.65625 C 210.398438 77.941406 210.464844 78.722656 210.5625 79.480469 C 210.5 79.566406 210.3125 79.582031 210.226562 79.507812 C 210.042969 78.664062 209.480469 77.695312 207.683594 77.695312 C 205.785156 77.695312 204.175781 78.898438 204.175781 81.464844 C 204.175781 84.070312 205.824219 85.511719 207.855469 85.511719 C 209.460938 85.511719 210.167969 84.46875 210.449219 83.734375 C 210.535156 83.671875 210.722656 83.699219 210.773438 83.785156 C 210.6875 84.429688 210.363281 85.25 210.179688 85.484375 C 210.027344 85.511719 209.878906 85.558594 209.742188 85.609375 C 209.472656 85.710938 208.578125 85.894531 207.78125 85.894531 C 206.667969 85.894531 205.601562 85.671875 204.695312 85.0625 C 203.703125 84.382812 202.933594 83.253906 202.933594 81.652344 C 202.933594 80.273438 203.554688 79.097656 204.496094 78.363281 "/>
<path fill-rule="nonzero" fill="rgb(14.422607%, 20.367432%, 42.704773%)" fill-opacity="1" d="M 214.851562 81.691406 C 214.253906 81.691406 214.230469 81.714844 214.230469 82.085938 L 214.230469 83.835938 C 214.230469 85.136719 214.292969 85.3125 214.988281 85.386719 L 215.347656 85.421875 C 215.421875 85.472656 215.398438 85.695312 215.324219 85.734375 C 214.652344 85.710938 214.230469 85.695312 213.746094 85.695312 C 213.210938 85.695312 212.789062 85.71875 212.304688 85.734375 C 212.234375 85.695312 212.207031 85.5 212.285156 85.421875 L 212.492188 85.386719 C 213.1875 85.261719 213.210938 85.136719 213.210938 83.835938 L 213.210938 79.371094 C 213.210938 78.066406 213.125 77.855469 212.480469 77.804688 L 212.160156 77.78125 C 212.082031 77.734375 212.109375 77.507812 212.183594 77.472656 C 212.789062 77.484375 213.210938 77.507812 213.746094 77.507812 C 214.230469 77.507812 214.652344 77.496094 215.1875 77.472656 C 215.257812 77.507812 215.285156 77.734375 215.210938 77.78125 L 214.972656 77.804688 C 214.253906 77.878906 214.230469 78.066406 214.230469 79.371094 L 214.230469 80.796875 C 214.230469 81.179688 214.253906 81.195312 214.851562 81.195312 L 218.398438 81.195312 C 218.992188 81.195312 219.019531 81.179688 219.019531 80.796875 L 219.019531 79.371094 C 219.019531 78.066406 218.992188 77.878906 218.261719 77.804688 L 218.027344 77.78125 C 217.953125 77.734375 217.976562 77.507812 218.050781 77.472656 C 218.621094 77.496094 219.042969 77.507812 219.550781 77.507812 C 220.035156 77.507812 220.457031 77.496094 221.015625 77.472656 C 221.089844 77.507812 221.117188 77.734375 221.039062 77.78125 L 220.78125 77.804688 C 220.0625 77.878906 220.035156 78.066406 220.035156 79.371094 L 220.035156 83.835938 C 220.035156 85.136719 220.0625 85.296875 220.78125 85.386719 L 221.078125 85.421875 C 221.152344 85.472656 221.125 85.695312 221.050781 85.734375 C 220.457031 85.710938 220.035156 85.695312 219.550781 85.695312 C 219.042969 85.695312 218.597656 85.710938 218.050781 85.734375 C 217.976562 85.695312 217.953125 85.5 218.027344 85.421875 L 218.261719 85.386719 C 219.019531 85.261719 219.019531 85.136719 219.019531 83.835938 L 219.019531 82.085938 C 219.019531 81.714844 218.992188 81.691406 218.398438 81.691406 Z M 214.851562 81.691406 "/>
<path fill-rule="nonzero" fill="rgb(14.422607%, 20.367432%, 42.704773%)" fill-opacity="1" d="M 229.96875 81.949219 C 229.96875 79.902344 229.0625 77.695312 226.695312 77.695312 C 225.402344 77.695312 223.730469 78.574219 223.730469 81.292969 C 223.730469 83.128906 224.621094 85.511719 227.066406 85.511719 C 228.554688 85.511719 229.96875 84.394531 229.96875 81.949219 M 222.488281 81.6875 C 222.488281 79.207031 224.347656 77.308594 226.90625 77.308594 C 229.769531 77.308594 231.207031 79.382812 231.207031 81.566406 C 231.207031 84.070312 229.296875 85.894531 226.90625 85.894531 C 224.152344 85.894531 222.488281 83.921875 222.488281 81.6875 "/>
<path fill-rule="nonzero" fill="rgb(14.422607%, 20.367432%, 42.704773%)" fill-opacity="1" d="M 240.445312 81.949219 C 240.445312 79.902344 239.539062 77.695312 237.171875 77.695312 C 235.882812 77.695312 234.207031 78.574219 234.207031 81.292969 C 234.207031 83.128906 235.097656 85.511719 237.542969 85.511719 C 239.03125 85.511719 240.445312 84.394531 240.445312 81.949219 M 232.964844 81.6875 C 232.964844 79.207031 234.828125 77.308594 237.382812 77.308594 C 240.246094 77.308594 241.683594 79.382812 241.683594 81.566406 C 241.683594 84.070312 239.773438 85.894531 237.382812 85.894531 C 234.628906 85.894531 232.964844 83.921875 232.964844 81.6875 "/>
<path fill-rule="nonzero" fill="rgb(14.422607%, 20.367432%, 42.704773%)" fill-opacity="1" d="M 244.386719 79.367188 C 244.386719 78.066406 244.363281 77.867188 243.578125 77.808594 L 243.269531 77.78125 C 243.195312 77.730469 243.21875 77.507812 243.292969 77.472656 C 243.988281 77.496094 244.410156 77.507812 244.90625 77.507812 C 245.390625 77.507812 245.8125 77.496094 246.433594 77.472656 C 246.507812 77.507812 246.53125 77.730469 246.457031 77.78125 L 246.160156 77.808594 C 245.425781 77.867188 245.402344 78.066406 245.402344 79.367188 L 245.402344 83.6875 C 245.402344 84.46875 245.441406 84.792969 245.664062 85.027344 C 245.800781 85.164062 246.035156 85.3125 247.015625 85.3125 C 248.070312 85.3125 248.332031 85.261719 248.53125 85.148438 C 248.777344 85.003906 249.101562 84.554688 249.347656 83.921875 C 249.421875 83.859375 249.65625 83.910156 249.65625 83.996094 C 249.65625 84.132812 249.3125 85.398438 249.136719 85.734375 C 248.503906 85.710938 247.324219 85.695312 246.046875 85.695312 L 244.90625 85.695312 C 244.386719 85.695312 243.988281 85.710938 243.292969 85.734375 C 243.21875 85.695312 243.195312 85.5 243.269531 85.425781 L 243.644531 85.386719 C 244.363281 85.3125 244.386719 85.136719 244.386719 83.835938 Z M 244.386719 79.367188 "/>
<path fill-rule="nonzero" fill="rgb(14.422607%, 20.367432%, 42.704773%)" fill-opacity="1" d="M 124.066406 95.09375 C 123.34375 96.058594 122.863281 97.535156 122.824219 98.195312 C 122.796875 98.625 122.972656 98.988281 123.332031 98.988281 C 123.605469 98.988281 123.917969 98.875 124.3125 98.34375 C 124.859375 97.609375 125.441406 95.972656 125.464844 95.316406 C 125.476562 94.929688 125.40625 94.496094 124.96875 94.496094 C 124.722656 94.496094 124.421875 94.609375 124.066406 95.09375 M 126.324219 95.6875 C 126.285156 96.367188 125.925781 97.5625 125.007812 98.503906 C 124.238281 99.296875 123.570312 99.359375 123.234375 99.359375 C 122.441406 99.359375 121.917969 98.777344 121.992188 97.707031 C 122.042969 96.941406 122.503906 95.738281 123.34375 94.929688 C 123.992188 94.3125 124.546875 94.125 125.054688 94.125 C 125.9375 94.125 126.371094 94.78125 126.324219 95.6875 "/>
<path fill-rule="nonzero" fill="rgb(14.422607%, 20.367432%, 42.704773%)" fill-opacity="1" d="M 129.917969 94.757812 C 129.84375 94.96875 129.742188 95.363281 129.59375 95.910156 C 129.222656 97.300781 128.886719 98.492188 128.488281 99.855469 C 128.167969 100.972656 127.757812 101.605469 127.511719 101.851562 C 127.324219 102.027344 126.753906 102.523438 126.019531 102.523438 C 125.351562 102.523438 125.117188 102.101562 125.117188 101.914062 C 125.117188 101.667969 125.265625 101.457031 125.402344 101.355469 C 125.5 101.28125 125.613281 101.320312 125.6875 101.40625 C 125.984375 101.714844 126.355469 101.914062 126.628906 101.914062 C 126.878906 101.914062 127.140625 101.828125 127.425781 100.871094 C 127.992188 98.914062 128.429688 96.777344 129.023438 94.757812 L 127.992188 94.757812 C 127.871094 94.644531 127.921875 94.410156 128.082031 94.296875 L 129.148438 94.296875 C 129.472656 93.183594 129.804688 92.214844 130.535156 91.347656 C 131.15625 90.613281 131.804688 90.316406 132.523438 90.316406 C 132.980469 90.316406 133.476562 90.640625 133.476562 91.136719 C 133.476562 91.457031 133.144531 91.84375 132.945312 91.84375 C 132.832031 91.84375 132.78125 91.730469 132.769531 91.644531 C 132.734375 90.960938 132.386719 90.734375 132.074219 90.734375 C 131.804688 90.734375 131.46875 90.984375 131.183594 91.40625 C 130.609375 92.238281 130.363281 93.117188 130.027344 94.296875 L 131.578125 94.296875 C 131.664062 94.433594 131.640625 94.621094 131.453125 94.757812 Z M 129.917969 94.757812 "/>
<path fill-rule="nonzero" fill="rgb(14.422607%, 20.367432%, 42.704773%)" fill-opacity="1" d="M 138.460938 97.324219 C 138.460938 98.628906 138.484375 98.789062 139.277344 98.875 L 139.613281 98.914062 C 139.691406 98.972656 139.664062 99.183594 139.589844 99.222656 C 138.882812 99.199219 138.472656 99.183594 137.976562 99.183594 C 137.453125 99.183594 137.011719 99.199219 136.464844 99.222656 C 136.390625 99.183594 136.363281 98.988281 136.4375 98.914062 L 136.699219 98.875 C 137.417969 98.777344 137.441406 98.628906 137.441406 97.324219 L 137.441406 92.746094 C 137.441406 91.691406 137.417969 91.480469 136.859375 91.421875 L 136.414062 91.371094 C 136.324219 91.296875 136.339844 91.109375 136.4375 91.058594 C 137.097656 90.972656 137.863281 90.960938 138.894531 90.960938 C 139.925781 90.960938 140.691406 91.097656 141.277344 91.457031 C 141.847656 91.816406 142.269531 92.460938 142.269531 93.316406 C 142.269531 94.460938 141.5625 95.027344 141.027344 95.289062 C 140.480469 95.550781 139.824219 95.664062 139.316406 95.664062 C 139.230469 95.625 139.230469 95.4375 139.304688 95.414062 C 140.644531 95.167969 141.128906 94.410156 141.128906 93.332031 C 141.128906 92.128906 140.421875 91.347656 139.132812 91.347656 C 138.472656 91.347656 138.460938 91.394531 138.460938 91.792969 Z M 138.460938 97.324219 "/>
<path fill-rule="nonzero" fill="rgb(14.422607%, 20.367432%, 42.704773%)" fill-opacity="1" d="M 150.789062 94.109375 C 150.789062 93.34375 150.765625 91.917969 150.554688 91.542969 C 150.464844 91.394531 150.242188 91.308594 149.933594 91.285156 L 149.625 91.257812 C 149.546875 91.171875 149.570312 91.011719 149.644531 90.960938 C 150.117188 90.984375 150.578125 91 151.0625 91 C 151.582031 91 151.917969 90.984375 152.363281 90.960938 C 152.464844 91.023438 152.449219 91.183594 152.390625 91.257812 L 152.089844 91.285156 C 151.78125 91.308594 151.546875 91.421875 151.472656 91.582031 C 151.296875 91.992188 151.296875 93.417969 151.296875 94.109375 L 151.296875 95.511719 C 151.296875 96.59375 151.125 97.734375 150.429688 98.476562 C 149.894531 99.0625 148.976562 99.382812 148.058594 99.382812 C 147.203125 99.382812 146.347656 99.222656 145.738281 98.703125 C 145.082031 98.15625 144.769531 97.25 144.769531 95.773438 L 144.769531 92.847656 C 144.769531 91.554688 144.746094 91.34375 144.027344 91.285156 L 143.71875 91.257812 C 143.644531 91.210938 143.667969 91 143.742188 90.960938 C 144.363281 90.984375 144.785156 91 145.28125 91 C 145.789062 91 146.199219 90.984375 146.808594 90.960938 C 146.882812 91 146.90625 91.210938 146.832031 91.257812 L 146.53125 91.285156 C 145.8125 91.34375 145.789062 91.554688 145.789062 92.847656 L 145.789062 95.527344 C 145.789062 97.523438 146.410156 98.839844 148.308594 98.839844 C 150.105469 98.839844 150.789062 97.425781 150.789062 95.539062 Z M 150.789062 94.109375 "/>
<path fill-rule="nonzero" fill="rgb(14.422607%, 20.367432%, 42.704773%)" fill-opacity="1" d="M 155.757812 97.140625 C 155.757812 97.585938 155.78125 98.21875 156.019531 98.492188 C 156.253906 98.777344 156.625 98.835938 157 98.835938 C 158.105469 98.835938 158.945312 98.339844 158.945312 97.101562 C 158.945312 96.121094 158.449219 94.980469 156.480469 94.980469 C 155.808594 94.980469 155.757812 95.054688 155.757812 95.300781 Z M 155.757812 94.261719 C 155.757812 94.609375 155.773438 94.632812 156.402344 94.609375 C 157.667969 94.558594 158.351562 94.1875 158.351562 93.019531 C 158.351562 91.804688 157.445312 91.34375 156.503906 91.34375 C 156.230469 91.34375 156.042969 91.371094 155.933594 91.417969 C 155.808594 91.457031 155.757812 91.519531 155.757812 91.742188 Z M 154.742188 92.609375 C 154.742188 91.691406 154.691406 91.457031 154.132812 91.40625 L 153.738281 91.371094 C 153.636719 91.296875 153.648438 91.109375 153.75 91.058594 C 154.417969 90.996094 155.261719 90.960938 156.414062 90.960938 C 157.195312 90.960938 157.941406 91.023438 158.5 91.308594 C 159.03125 91.570312 159.445312 92.066406 159.445312 92.859375 C 159.445312 93.75 158.921875 94.210938 158.179688 94.558594 C 158.179688 94.683594 158.277344 94.71875 158.414062 94.742188 C 159.082031 94.867188 160.074219 95.488281 160.074219 96.816406 C 160.074219 98.253906 159.007812 99.222656 156.777344 99.222656 C 156.414062 99.222656 155.808594 99.1875 155.285156 99.1875 C 154.742188 99.1875 154.320312 99.210938 153.859375 99.222656 C 153.785156 99.1875 153.761719 98.988281 153.835938 98.914062 L 154.058594 98.875 C 154.71875 98.765625 154.742188 98.625 154.742188 97.324219 Z M 154.742188 92.609375 "/>
<path fill-rule="nonzero" fill="rgb(14.422607%, 20.367432%, 42.704773%)" fill-opacity="1" d="M 162.863281 92.859375 C 162.863281 91.554688 162.839844 91.355469 162.054688 91.296875 L 161.746094 91.269531 C 161.671875 91.222656 161.699219 91 161.769531 90.960938 C 162.46875 90.984375 162.886719 91 163.382812 91 C 163.867188 91 164.289062 90.984375 164.910156 90.960938 C 164.984375 91 165.007812 91.222656 164.933594 91.269531 L 164.636719 91.296875 C 163.90625 91.355469 163.882812 91.554688 163.882812 92.859375 L 163.882812 97.175781 C 163.882812 97.957031 163.917969 98.28125 164.140625 98.515625 C 164.277344 98.652344 164.511719 98.800781 165.492188 98.800781 C 166.546875 98.800781 166.808594 98.75 167.007812 98.640625 C 167.253906 98.492188 167.578125 98.042969 167.824219 97.410156 C 167.898438 97.347656 168.136719 97.398438 168.136719 97.488281 C 168.136719 97.621094 167.789062 98.886719 167.617188 99.222656 C 166.980469 99.199219 165.800781 99.183594 164.523438 99.183594 L 163.382812 99.183594 C 162.863281 99.183594 162.46875 99.199219 161.769531 99.222656 C 161.699219 99.183594 161.671875 98.988281 161.746094 98.914062 L 162.121094 98.875 C 162.839844 98.800781 162.863281 98.628906 162.863281 97.324219 Z M 162.863281 92.859375 "/>
<path fill-rule="nonzero" fill="rgb(14.422607%, 20.367432%, 42.704773%)" fill-opacity="1" d="M 170.339844 92.882812 C 170.339844 91.570312 170.316406 91.359375 169.582031 91.296875 L 169.273438 91.269531 C 169.199219 91.222656 169.222656 90.996094 169.296875 90.960938 C 169.917969 90.984375 170.339844 90.996094 170.859375 90.996094 C 171.359375 90.996094 171.777344 90.984375 172.398438 90.960938 C 172.476562 90.996094 172.5 91.222656 172.421875 91.269531 L 172.113281 91.296875 C 171.382812 91.359375 171.359375 91.570312 171.359375 92.882812 L 171.359375 97.300781 C 171.359375 98.613281 171.382812 98.789062 172.113281 98.875 L 172.421875 98.914062 C 172.5 98.960938 172.476562 99.1875 172.398438 99.222656 C 171.777344 99.199219 171.359375 99.1875 170.859375 99.1875 C 170.339844 99.1875 169.917969 99.199219 169.296875 99.222656 C 169.222656 99.1875 169.199219 98.988281 169.273438 98.914062 L 169.582031 98.875 C 170.316406 98.789062 170.339844 98.613281 170.339844 97.300781 Z M 170.339844 92.882812 "/>
<path fill-rule="nonzero" fill="rgb(14.422607%, 20.367432%, 42.704773%)" fill-opacity="1" d="M 175.671875 91.851562 C 176.578125 91.148438 177.730469 90.800781 179.023438 90.800781 C 179.691406 90.800781 180.636719 90.933594 181.21875 91.097656 C 181.367188 91.132812 181.453125 91.160156 181.566406 91.148438 C 181.574219 91.433594 181.640625 92.214844 181.738281 92.96875 C 181.675781 93.058594 181.488281 93.070312 181.402344 92.996094 C 181.21875 92.152344 180.65625 91.183594 178.859375 91.183594 C 176.960938 91.183594 175.351562 92.386719 175.351562 94.957031 C 175.351562 97.558594 177 99 179.03125 99 C 180.636719 99 181.34375 97.957031 181.625 97.226562 C 181.714844 97.164062 181.902344 97.1875 181.949219 97.277344 C 181.863281 97.917969 181.539062 98.738281 181.355469 98.972656 C 181.203125 99 181.054688 99.046875 180.917969 99.097656 C 180.648438 99.199219 179.753906 99.382812 178.957031 99.382812 C 177.84375 99.382812 176.777344 99.160156 175.871094 98.550781 C 174.878906 97.871094 174.109375 96.742188 174.109375 95.140625 C 174.109375 93.765625 174.730469 92.585938 175.671875 91.851562 "/>
<path fill-rule="nonzero" fill="rgb(14.422607%, 20.367432%, 42.704773%)" fill-opacity="1" d="M 189.734375 95.179688 C 189.136719 95.179688 189.113281 95.203125 189.113281 95.574219 L 189.113281 97.324219 C 189.113281 98.625 189.175781 98.800781 189.871094 98.875 L 190.230469 98.914062 C 190.304688 98.960938 190.28125 99.1875 190.207031 99.222656 C 189.535156 99.199219 189.113281 99.1875 188.628906 99.1875 C 188.097656 99.1875 187.675781 99.210938 187.191406 99.222656 C 187.117188 99.1875 187.089844 98.988281 187.167969 98.914062 L 187.378906 98.875 C 188.074219 98.75 188.097656 98.625 188.097656 97.324219 L 188.097656 92.859375 C 188.097656 91.558594 188.007812 91.34375 187.367188 91.296875 L 187.042969 91.269531 C 186.96875 91.222656 186.992188 90.996094 187.066406 90.960938 C 187.675781 90.972656 188.097656 90.996094 188.628906 90.996094 C 189.113281 90.996094 189.535156 90.984375 190.070312 90.960938 C 190.144531 90.996094 190.167969 91.222656 190.09375 91.269531 L 189.859375 91.296875 C 189.136719 91.371094 189.113281 91.558594 189.113281 92.859375 L 189.113281 94.285156 C 189.113281 94.667969 189.136719 94.683594 189.734375 94.683594 L 193.28125 94.683594 C 193.878906 94.683594 193.902344 94.667969 193.902344 94.285156 L 193.902344 92.859375 C 193.902344 91.558594 193.878906 91.371094 193.144531 91.296875 L 192.910156 91.269531 C 192.835938 91.222656 192.859375 90.996094 192.933594 90.960938 C 193.503906 90.984375 193.925781 90.996094 194.433594 90.996094 C 194.921875 90.996094 195.339844 90.984375 195.902344 90.960938 C 195.972656 90.996094 196 91.222656 195.921875 91.269531 L 195.664062 91.296875 C 194.945312 91.371094 194.921875 91.558594 194.921875 92.859375 L 194.921875 97.324219 C 194.921875 98.625 194.945312 98.789062 195.664062 98.875 L 195.964844 98.914062 C 196.035156 98.960938 196.011719 99.1875 195.9375 99.222656 C 195.339844 99.199219 194.921875 99.1875 194.433594 99.1875 C 193.925781 99.1875 193.480469 99.199219 192.933594 99.222656 C 192.859375 99.1875 192.835938 98.988281 192.910156 98.914062 L 193.144531 98.875 C 193.902344 98.75 193.902344 98.625 193.902344 97.324219 L 193.902344 95.574219 C 193.902344 95.203125 193.878906 95.179688 193.28125 95.179688 Z M 189.734375 95.179688 "/>
<path fill-rule="nonzero" fill="rgb(14.422607%, 20.367432%, 42.704773%)" fill-opacity="1" d="M 198.683594 92.859375 C 198.683594 91.570312 198.660156 91.382812 197.929688 91.296875 L 197.730469 91.269531 C 197.65625 91.222656 197.679688 91 197.753906 90.960938 C 198.289062 90.984375 198.710938 91 199.21875 91 L 201.550781 91 C 202.34375 91 203.078125 91 203.226562 90.960938 C 203.300781 91.171875 203.375 92.0625 203.425781 92.609375 C 203.375 92.683594 203.175781 92.710938 203.117188 92.636719 C 202.929688 92.050781 202.816406 91.617188 202.171875 91.457031 C 201.914062 91.394531 201.515625 91.382812 200.96875 91.382812 L 200.074219 91.382812 C 199.703125 91.382812 199.703125 91.40625 199.703125 91.878906 L 199.703125 94.359375 C 199.703125 94.707031 199.742188 94.707031 200.113281 94.707031 L 200.832031 94.707031 C 201.351562 94.707031 201.738281 94.683594 201.886719 94.632812 C 202.035156 94.582031 202.125 94.507812 202.183594 94.199219 L 202.285156 93.691406 C 202.34375 93.617188 202.554688 93.617188 202.605469 93.703125 C 202.605469 94 202.554688 94.484375 202.554688 94.957031 C 202.554688 95.402344 202.605469 95.875 202.605469 96.144531 C 202.554688 96.234375 202.34375 96.234375 202.285156 96.160156 L 202.171875 95.675781 C 202.125 95.453125 202.035156 95.265625 201.789062 95.203125 C 201.613281 95.152344 201.316406 95.140625 200.832031 95.140625 L 200.113281 95.140625 C 199.742188 95.140625 199.703125 95.152344 199.703125 95.476562 L 199.703125 97.226562 C 199.703125 97.882812 199.742188 98.304688 199.941406 98.515625 C 200.085938 98.664062 200.347656 98.800781 201.441406 98.800781 C 202.394531 98.800781 202.753906 98.75 203.027344 98.617188 C 203.25 98.492188 203.585938 98.054688 203.910156 97.410156 C 203.996094 97.347656 204.167969 97.386719 204.21875 97.5 C 204.132812 97.933594 203.824219 98.886719 203.660156 99.222656 C 202.542969 99.199219 201.441406 99.183594 200.335938 99.183594 L 199.21875 99.183594 C 198.683594 99.183594 198.261719 99.199219 197.53125 99.222656 C 197.457031 99.183594 197.433594 98.988281 197.507812 98.914062 L 197.914062 98.875 C 198.625 98.8125 198.683594 98.628906 198.683594 97.324219 Z M 198.683594 92.859375 "/>
<path fill-rule="nonzero" fill="rgb(14.422607%, 20.367432%, 42.704773%)" fill-opacity="1" d="M 207.550781 95.203125 C 207.453125 95.488281 207.464844 95.5 207.8125 95.5 L 209.339844 95.5 C 209.699219 95.5 209.722656 95.449219 209.613281 95.117188 L 208.941406 93.09375 C 208.84375 92.796875 208.730469 92.460938 208.65625 92.3125 L 208.632812 92.3125 C 208.59375 92.375 208.46875 92.671875 208.332031 93.046875 Z M 210.007812 96.308594 C 209.921875 96.035156 209.871094 95.996094 209.5 95.996094 L 207.625 95.996094 C 207.316406 95.996094 207.242188 96.035156 207.15625 96.296875 L 206.722656 97.597656 C 206.535156 98.15625 206.449219 98.492188 206.449219 98.628906 C 206.449219 98.777344 206.511719 98.851562 206.808594 98.875 L 207.21875 98.914062 C 207.304688 98.972656 207.304688 99.171875 207.195312 99.222656 C 206.871094 99.199219 206.488281 99.199219 205.902344 99.183594 C 205.492188 99.183594 205.046875 99.210938 204.710938 99.222656 C 204.636719 99.171875 204.613281 98.972656 204.6875 98.914062 L 205.09375 98.875 C 205.394531 98.851562 205.667969 98.714844 205.839844 98.265625 C 206.066406 97.695312 206.410156 96.890625 206.933594 95.5 L 208.199219 92.152344 C 208.371094 91.707031 208.445312 91.46875 208.40625 91.269531 C 208.707031 91.183594 208.917969 90.960938 209.054688 90.800781 C 209.128906 90.800781 209.214844 90.824219 209.238281 90.910156 C 209.402344 91.457031 209.601562 92.027344 209.785156 92.574219 L 211.484375 97.558594 C 211.84375 98.628906 212.003906 98.8125 212.539062 98.875 L 212.875 98.914062 C 212.960938 98.972656 212.9375 99.171875 212.875 99.222656 C 212.363281 99.199219 211.933594 99.183594 211.371094 99.183594 C 210.777344 99.183594 210.308594 99.210938 209.949219 99.222656 C 209.847656 99.171875 209.835938 98.972656 209.921875 98.914062 L 210.28125 98.875 C 210.542969 98.851562 210.714844 98.777344 210.714844 98.652344 C 210.714844 98.515625 210.65625 98.292969 210.554688 97.992188 Z M 210.007812 96.308594 "/>
<path fill-rule="nonzero" fill="rgb(14.422607%, 20.367432%, 42.704773%)" fill-opacity="1" d="M 214.894531 92.859375 C 214.894531 91.554688 214.867188 91.355469 214.085938 91.296875 L 213.777344 91.269531 C 213.703125 91.222656 213.726562 91 213.800781 90.960938 C 214.496094 90.984375 214.917969 91 215.414062 91 C 215.898438 91 216.320312 90.984375 216.941406 90.960938 C 217.011719 91 217.039062 91.222656 216.964844 91.269531 L 216.667969 91.296875 C 215.9375 91.355469 215.910156 91.554688 215.910156 92.859375 L 215.910156 97.175781 C 215.910156 97.957031 215.949219 98.28125 216.171875 98.515625 C 216.304688 98.652344 216.542969 98.800781 217.523438 98.800781 C 218.578125 98.800781 218.835938 98.75 219.039062 98.640625 C 219.285156 98.492188 219.609375 98.042969 219.855469 97.410156 C 219.929688 97.347656 220.164062 97.398438 220.164062 97.488281 C 220.164062 97.621094 219.820312 98.886719 219.644531 99.222656 C 219.011719 99.199219 217.832031 99.183594 216.554688 99.183594 L 215.414062 99.183594 C 214.894531 99.183594 214.496094 99.199219 213.800781 99.222656 C 213.726562 99.183594 213.703125 98.988281 213.777344 98.914062 L 214.148438 98.875 C 214.867188 98.800781 214.894531 98.628906 214.894531 97.324219 Z M 214.894531 92.859375 "/>
<path fill-rule="nonzero" fill="rgb(14.422607%, 20.367432%, 42.704773%)" fill-opacity="1" d="M 224.105469 97.324219 C 224.105469 98.628906 224.132812 98.8125 224.851562 98.875 L 225.25 98.914062 C 225.324219 98.960938 225.296875 99.183594 225.222656 99.222656 C 224.515625 99.199219 224.09375 99.183594 223.597656 99.183594 C 223.101562 99.183594 222.667969 99.199219 221.875 99.222656 C 221.800781 99.183594 221.777344 98.972656 221.875 98.914062 L 222.320312 98.875 C 223.027344 98.8125 223.089844 98.628906 223.089844 97.324219 L 223.089844 91.777344 C 223.089844 91.394531 223.089844 91.382812 222.71875 91.382812 L 222.035156 91.382812 C 221.503906 91.382812 220.820312 91.40625 220.507812 91.691406 C 220.210938 91.964844 220.085938 92.238281 219.953125 92.550781 C 219.851562 92.625 219.675781 92.5625 219.628906 92.460938 C 219.828125 91.902344 220.011719 91.109375 220.097656 90.613281 C 220.136719 90.589844 220.296875 90.578125 220.335938 90.613281 C 220.410156 91.011719 220.820312 91 221.390625 91 L 226.414062 91 C 227.085938 91 227.195312 90.972656 227.382812 90.648438 C 227.445312 90.625 227.582031 90.640625 227.605469 90.6875 C 227.46875 91.195312 227.382812 92.203125 227.421875 92.574219 C 227.371094 92.671875 227.160156 92.671875 227.097656 92.597656 C 227.058594 92.289062 226.972656 91.828125 226.789062 91.691406 C 226.503906 91.480469 226.03125 91.382812 225.347656 91.382812 L 224.464844 91.382812 C 224.09375 91.382812 224.105469 91.394531 224.105469 91.804688 Z M 224.105469 97.324219 "/>
<path fill-rule="nonzero" fill="rgb(14.422607%, 20.367432%, 42.704773%)" fill-opacity="1" d="M 231.574219 95.179688 C 230.976562 95.179688 230.953125 95.203125 230.953125 95.574219 L 230.953125 97.324219 C 230.953125 98.625 231.011719 98.800781 231.707031 98.875 L 232.066406 98.914062 C 232.140625 98.960938 232.117188 99.1875 232.042969 99.222656 C 231.375 99.199219 230.953125 99.1875 230.46875 99.1875 C 229.933594 99.1875 229.511719 99.210938 229.027344 99.222656 C 228.953125 99.1875 228.929688 98.988281 229.003906 98.914062 L 229.214844 98.875 C 229.910156 98.75 229.933594 98.625 229.933594 97.324219 L 229.933594 92.859375 C 229.933594 91.558594 229.847656 91.34375 229.203125 91.296875 L 228.878906 91.269531 C 228.804688 91.222656 228.832031 90.996094 228.90625 90.960938 C 229.511719 90.972656 229.933594 90.996094 230.46875 90.996094 C 230.953125 90.996094 231.375 90.984375 231.90625 90.960938 C 231.980469 90.996094 232.007812 91.222656 231.929688 91.269531 L 231.695312 91.296875 C 230.976562 91.371094 230.953125 91.558594 230.953125 92.859375 L 230.953125 94.285156 C 230.953125 94.667969 230.976562 94.683594 231.574219 94.683594 L 235.121094 94.683594 C 235.714844 94.683594 235.742188 94.667969 235.742188 94.285156 L 235.742188 92.859375 C 235.742188 91.558594 235.714844 91.371094 234.980469 91.296875 L 234.75 91.269531 C 234.671875 91.222656 234.699219 90.996094 234.769531 90.960938 C 235.34375 90.984375 235.765625 90.996094 236.273438 90.996094 C 236.757812 90.996094 237.179688 90.984375 237.738281 90.960938 C 237.8125 90.996094 237.835938 91.222656 237.761719 91.269531 L 237.503906 91.296875 C 236.78125 91.371094 236.757812 91.558594 236.757812 92.859375 L 236.757812 97.324219 C 236.757812 98.625 236.78125 98.789062 237.503906 98.875 L 237.800781 98.914062 C 237.875 98.960938 237.847656 99.1875 237.773438 99.222656 C 237.179688 99.199219 236.757812 99.1875 236.273438 99.1875 C 235.765625 99.1875 235.316406 99.199219 234.769531 99.222656 C 234.699219 99.1875 234.671875 98.988281 234.75 98.914062 L 234.980469 98.875 C 235.742188 98.75 235.742188 98.625 235.742188 97.324219 L 235.742188 95.574219 C 235.742188 95.203125 235.714844 95.179688 235.121094 95.179688 Z M 231.574219 95.179688 "/>
</svg>
