<?xml version="1.0" encoding="UTF-8" standalone="no"?>
<svg xmlns="http://www.w3.org/2000/svg" viewBox="0 0 800 800">
  <defs>
    <linearGradient id="filoBg" x1="0%" y1="0%" x2="100%" y2="100%">
      <stop offset="0%" style="stop-color:#220033;stop-opacity:1" />
      <stop offset="100%" style="stop-color:#000000;stop-opacity:1" />
    </linearGradient>
  </defs>
  <rect width="800" height="800" fill="url(#filoBg)" />
  
  <!-- Filament main body -->
  <path d="M 150,300 C 250,200 300,400 400,350 C 500,300 550,500 650,400 C 750,300 700,450 650,500 C 600,550 550,450 450,500 C 350,550 300,350 200,400 C 100,450 50,350 150,300 Z" 
        fill="none" stroke="#ff8844" stroke-width="15" stroke-linecap="round"/>
  
  <!-- Small floating particles -->
  <g fill="#883322" opacity="0.6">
    <circle cx="200" cy="280" r="5"/>
    <circle cx="300" cy="450" r="4"/>
    <circle cx="400" cy="300" r="6"/>
    <circle cx="500" cy="400" r="4"/>
    <circle cx="600" cy="350" r="5"/>
    <circle cx="250" cy="350" r="3"/>
    <circle cx="350" cy="400" r="4"/>
    <circle cx="450" cy="350" r="3"/>
    <circle cx="550" cy="450" r="5"/>
  </g>
  
  <!-- Highlights -->
  <g fill="none" stroke="#ffaa77" stroke-width="2" opacity="0.7">
    <path d="M 160,290 C 240,210 290,390 390,340"/>
    <path d="M 410,350 C 490,310 540,490 640,390"/>
  </g>
</svg>