<?xml version="1.0" encoding="UTF-8" standalone="no"?>
<svg xmlns="http://www.w3.org/2000/svg" viewBox="0 0 800 800">
  <defs>
    <radialGradient id="unknownBg" cx="50%" cy="50%" r="50%" fx="50%" fy="50%">
      <stop offset="0%" style="stop-color:#331133;stop-opacity:1" />
      <stop offset="100%" style="stop-color:#110011;stop-opacity:1" />
    </radialGradient>
  </defs>
  <rect width="800" height="800" fill="url(#unknownBg)" />
  
  <!-- Main virus body with question mark shape -->
  <g transform="translate(400, 400)">
    <!-- Circular base -->
    <circle cx="0" cy="0" r="150" fill="#9966cc" opacity="0.8"/>
    
    <!-- Question mark -->
    <path d="M -50,0 C -50,-50 0,-100 50,-50 C 100,0 0,50 0,50 L 0,100" 
          stroke="#ffffff" stroke-width="30" fill="none" opacity="0.8"/>
    <circle cx="0" cy="150" r="15" fill="#ffffff" opacity="0.8"/>
    
    <!-- Mysterious particles floating around -->
    <g fill="#ff88ff" opacity="0.6">
      <circle cx="-100" cy="-100" r="15"/>
      <circle cx="100" cy="-100" r="20"/>
      <circle cx="100" cy="100" r="15"/>
      <circle cx="-100" cy="100" r="10"/>
      <circle cx="-120" cy="0" r="12"/>
      <circle cx="120" cy="0" r="18"/>
      <circle cx="0" cy="-120" r="14"/>
      <circle cx="0" cy="120" r="16"/>
    </g>
    
    <!-- Mysterious structures -->
    <g stroke="#aa77ff" stroke-width="3" fill="none" opacity="0.7">
      <path d="M -130,-30 C -100,-60 -70,-40 -70,-10"/>
      <path d="M 130,-30 C 100,-60 70,-40 70,-10"/>
      <path d="M -60,-110 C -30,-140 0,-120 0,-90"/>
      <path d="M 60,-110 C 30,-140 0,-120 0,-90"/>
      <path d="M -100,80 C -70,50 -40,70 -40,100"/>
      <path d="M 100,80 C 70,50 40,70 40,100"/>
    </g>
  </g>
  
  <!-- Small mystery viruses in the background -->
  <g opacity="0.4">
    <circle cx="150" cy="150" r="40" fill="#6633cc"/>
    <circle cx="650" cy="150" r="50" fill="#9966ff"/>
    <circle cx="150" cy="650" r="45" fill="#cc33ff"/>
    <circle cx="650" cy="650" r="35" fill="#ff33cc"/>
  </g>
</svg>